<?xml version="1.0" standalone="no"?><svg xmlns="http://www.w3.org/2000/svg" viewBox="0 0 1440 320"><path fill="#000b76" fill-opacity="1" d="M0,224L30,224C60,224,120,224,180,202.7C240,181,300,139,360,138.7C420,139,480,181,540,218.7C600,256,660,288,720,282.7C780,277,840,235,900,197.3C960,160,1020,128,1080,133.3C1140,139,1200,181,1260,181.3C1320,181,1380,139,1410,117.3L1440,96L1440,320L1410,320C1380,320,1320,320,1260,320C1200,320,1140,320,1080,320C1020,320,960,320,900,320C840,320,780,320,720,320C660,320,600,320,540,320C480,320,420,320,360,320C300,320,240,320,180,320C120,320,60,320,30,320L0,320Z"></path></svg>